<?xml version="1.0" encoding="iso-8859-1"?>
<!-- Uploaded to: SVG Repo, www.svgrepo.com, Generator: SVG Repo Mixer Tools -->
<!DOCTYPE svg PUBLIC "-//W3C//DTD SVG 1.1//EN" "http://www.w3.org/Graphics/SVG/1.1/DTD/svg11.dtd">
<svg fill="#000000" height="800px" width="800px" version="1.1" id="Capa_1" xmlns="http://www.w3.org/2000/svg" xmlns:xlink="http://www.w3.org/1999/xlink" 
	 viewBox="0 0 218.972 218.972" xml:space="preserve">
<path d="M184.472,101.652h-1.531c-0.034-0.97-0.082-1.949-0.147-2.935c-0.261-3.941-3.533-7.005-7.483-7.005H7.689
	c-3.951,0-7.226,3.066-7.484,7.009C0.069,100.802,0,102.846,0,104.798c0,35.655,20.502,66.609,50.335,81.701
	c-0.85,1.88-1.335,3.959-1.335,6.153c0,8.271,6.729,15,15,15h55c8.271,0,15-6.729,15-15c0-2.194-0.485-4.273-1.335-6.153
	c8.217-4.157,15.724-9.516,22.292-15.847h29.515c19.023,0,34.5-15.477,34.5-34.5S203.495,101.652,184.472,101.652z M184.472,155.652
	h-16.943c7.68-11.445,12.847-24.709,14.704-39h2.239c10.752,0,19.5,8.748,19.5,19.5S195.224,155.652,184.472,155.652z
	 M109.667,82.319H87.333c-11.854,0-21.499-9.645-21.499-21.5s9.645-21.5,21.499-21.5h2.834c3.584,0,6.5-2.916,6.5-6.5v-14
	c0-4.143,3.357-7.5,7.5-7.5s7.5,3.357,7.5,7.5v14c0,11.855-9.645,21.5-21.5,21.5h-2.834c-3.584,0-6.499,2.916-6.499,6.5
	s2.915,6.5,6.499,6.5h22.334c4.143,0,7.5,3.357,7.5,7.5S113.81,82.319,109.667,82.319z"/>
</svg>